<?xml version="1.0" encoding="UTF-8"?>
<!DOCTYPE svg PUBLIC "-//W3C//DTD SVG 1.1//EN" "http://www.w3.org/Graphics/SVG/1.1/DTD/svg11.dtd">
<svg version="1.1" xmlns="http://www.w3.org/2000/svg" xmlns:xlink="http://www.w3.org/1999/xlink" x="0" y="0" width="190" height="190" viewBox="0, 0, 190, 190">
  <g id="#ffffffff">
    <path d="M75.55,50.83 C75.39,48.33 75.18,45.84 75.02,43.34 C96.35,39.89 119.11,47.9 133.28,64.27 C145.09,77.42 150.79,95.58 149.15,113.14 C146.68,112.86 144.21,112.47 141.75,112.1 C142.01,108.83 142.69,105.33 141.21,102.25 C138.73,97.69 135.51,93.03 130.33,91.37 C129.8,87.23 128.83,82.84 125.68,79.86 C123.4,77.28 119.96,76.37 116.7,75.82 C116.68,72.61 115.96,69.26 113.5,67 C109.69,63.17 103.88,59.19 98.38,61.97 C99.04,55.54 92.79,51.89 87.59,50.05 C83.67,48.45 79.33,49.21 75.55,50.83 z" fill="#FFFFFF"/>
    <path d="M31.2,72.27 C32.4,72.91 33.64,73.51 34.86,74.12 C31.26,78.84 30.66,85.21 32.78,90.69 C35.34,97.26 34.92,104.41 36.33,111.22 C37.44,116.99 38.74,122.72 40.48,128.33 C37.47,132.71 34.32,136.99 31.29,141.36 C17.89,120.87 18.01,92.84 31.2,72.27 z" fill="#FFFFFF"/>
  </g>
  <g id="#010100ff">
    <path d="M14.58,30.26 C24.04,16.53 38.12,4.67 54.99,1.93 C55.47,6.49 56.08,11.03 56.89,15.54 C63.41,13.83 70.16,12.89 76.9,13.39 C76.17,17.99 75.51,22.61 75.21,27.27 C75.16,28 75.05,29.47 75,30.2 C74.94,30.79 74.83,31.96 74.78,32.55 C76.38,32.38 77.98,32.22 79.59,32.07 C78.06,32.39 76.35,32.48 75.09,33.48 C74.6,36.74 74.84,40.06 75.02,43.34 C75.18,45.84 75.39,48.33 75.55,50.83 C79.33,49.21 83.67,48.45 87.59,50.05 C92.79,51.89 99.04,55.54 98.38,61.97 C103.88,59.19 109.69,63.17 113.5,67 C115.96,69.26 116.68,72.61 116.7,75.82 C119.96,76.37 123.4,77.28 125.68,79.86 C128.83,82.84 129.8,87.23 130.33,91.37 C135.51,93.03 138.73,97.69 141.21,102.25 C142.69,105.33 142.01,108.83 141.75,112.1 C144.21,112.47 146.68,112.86 149.15,113.14 C152.7,113.54 156.27,113.82 159.84,113.96 C160.43,113.97 161.61,114 162.2,114.01 C162.91,114.01 164.31,114.01 165.01,114.01 C169.79,114 174.55,113.57 179.31,113.13 C179.35,120.07 177.96,126.92 175.82,133.5 C178.91,134.11 182,134.71 185.11,135.22 C180.25,153.25 166.87,167.88 151.33,177.64 C148.17,175.97 145.17,174.01 142.28,171.91 C139.24,172.93 136.18,173.9 133.12,174.84 C132.58,174.3 131.49,173.21 130.95,172.67 C130.28,171.95 129.63,171.23 129,170.48 C128.65,170.04 127.96,169.15 127.61,168.71 C125.47,165.81 123.58,162.72 121.94,159.52 C120.06,155.7 118.61,151.69 117.35,147.63 C111.24,153.38 104.37,158.23 97.32,162.74 C95.07,164.23 92.47,165.02 89.89,165.72 C88.6,167.46 87.31,169.21 86.04,170.96 C84.72,170.97 83.4,170.93 82.09,170.89 C83.74,169.14 85.42,167.43 87.12,165.74 C79.92,162.88 76.78,155 70.09,151.35 C66.72,148.56 61.74,148.56 58.82,145.2 C66.05,145.4 72.1,149.78 77.63,153.97 C80.8,156.42 82.87,160.18 86.54,161.98 C89.69,163.51 93.29,162.24 96.03,160.44 C103.27,155.75 110.6,151.08 116.89,145.11 C115.25,139.19 112.54,133.6 111.3,127.56 C107.19,124.97 103.02,122.47 98.49,120.68 C100.58,124.74 102.87,128.86 103.13,133.52 C99.29,128.3 97.53,121.07 91.13,118.15 C91.13,121.13 91.35,124.1 91.38,127.08 C89.38,123.49 88.86,118.98 85.4,116.35 C83.96,122.2 83.38,128.61 79.64,133.58 C79.99,126.56 82.81,119.26 80.07,112.4 C77.42,105.99 70.4,103.48 65.85,98.74 C62.65,95.74 61.26,91.34 58.02,88.38 C53.27,88.6 49.35,92.02 44.91,93.48 C47.61,89.95 51.61,87.94 55.53,86.11 C51.58,84.53 47.31,83.74 43.58,81.62 C47.89,81.86 52.2,82.53 56.24,84.09 C54.97,80.95 54.97,77.51 57.48,74.96 C57.85,78.07 57.49,81.5 59.27,84.25 C61.33,87.65 65.08,89.49 68.65,90.9 C73.5,92.8 79.39,93.22 83.96,90.36 C86.84,88.27 88.32,84.9 89.99,81.88 C84.65,77.79 78.99,74.01 74.48,68.96 C71.38,65.84 68.42,61.43 63.53,61.46 C58.14,61.74 54.3,66.06 49.6,68.16 C44.21,71.04 36.97,72.48 34.38,78.72 C31.68,84.89 35.56,91.07 36.71,97.1 C38.44,106.72 39.64,116.5 42.65,125.84 C44.26,130.69 47.7,135.03 52.44,137.13 C57.43,139.6 63.1,139.69 68.48,140.64 C63.1,143.51 57.22,140.97 51.87,139.39 C47.77,138.08 44.47,135.21 41.17,132.57 C38.54,136.46 35.84,140.29 33.14,144.13 C32.51,143.22 31.89,142.29 31.29,141.36 C34.32,136.99 37.47,132.71 40.48,128.33 C38.74,122.72 37.44,116.99 36.33,111.22 C34.92,104.41 35.34,97.26 32.78,90.69 C30.66,85.21 31.26,78.84 34.86,74.12 C33.64,73.51 32.4,72.91 31.2,72.27 C28.04,70.57 25.03,68.62 22.23,66.39 C21.61,65.89 21.01,65.37 20.43,64.83 C20.15,64.05 19.59,62.49 19.32,61.71 C19.07,57.07 19.5,52.43 19.73,47.8 C17.77,42.07 14.71,36.41 14.58,30.26 M16.15,30.9 C19.2,45.9 27.53,59.61 38.66,69.99 C39.55,71.33 40.74,70.2 41.77,69.74 C34.35,62.88 28.55,54.4 24.25,45.29 C22.73,42.18 21.89,38.78 20.17,35.78 C21.92,35.11 22.43,32.95 23.55,31.6 L23.43,30.8 L23.79,31.29 C24.17,29.59 24.27,27.85 24.34,26.11 C29.64,20.28 35.87,15.34 42.74,11.46 C44.72,14.63 47.82,16.71 51.7,16.23 C54.64,31.34 60.7,46.04 70.49,58.03 C71.7,59.52 73.19,60.75 74.7,61.94 C74.55,60.55 74.12,59.27 73.41,58.1 C61.24,42.7 55.65,23.16 53.35,3.94 C37.87,7.38 25.23,18.31 16.15,30.9 M26.01,27.09 C26.12,27.46 26.33,28.19 26.44,28.56 C25.98,30.25 25.44,31.94 25.02,33.65 C24.26,34.73 23.49,35.81 22.73,36.89 C27.08,49.01 34.07,60.26 43.56,69.03 C47.35,67.29 51.21,65.62 54.6,63.15 C57.44,61.09 60.74,58.85 64.45,59.68 C68.09,59.98 70.73,62.7 73.73,64.46 C61.52,51.8 53.83,35.31 50.28,18.19 C46.98,18.04 44.15,16.38 42.01,13.93 C36.13,17.56 30.54,21.82 26.01,27.09 M57.52,17.19 C57.56,17.88 57.65,19.26 57.69,19.95 C59.44,19.68 61.19,19.42 62.94,19.15 C63.57,22.79 65.94,25.73 69.65,26.47 C69.37,34.33 69.52,42.24 70.81,50.01 C71.13,52.58 72.97,54.52 74.49,56.46 C72.56,42.71 72.52,28.71 74.77,14.99 C68.95,15.03 63.16,15.77 57.52,17.19 M58.39,21.78 C60.71,30.75 63.95,39.5 68.46,47.61 C67.87,41.07 67.53,34.52 67.78,27.96 C64.75,26.82 62.48,24.49 61.55,21.38 C60.5,21.51 59.44,21.65 58.39,21.78 M75.94,52.92 C76.03,54.26 76.65,55.31 77.79,56.05 C76.12,59.29 74.24,62.94 74.88,66.66 C78.16,70.38 81.74,74.57 86.39,76.42 C89.66,74.13 91.03,70.14 93.4,67.05 C94.98,64.42 97.81,61.45 96.25,58.17 C94.94,54.48 90.88,53.1 87.58,51.72 C83.81,50.16 79.19,50.22 75.94,52.92 M21.3,62.53 C21.48,64.2 23.51,64.44 24.65,65.24 C24.8,65.51 25.1,66.04 25.24,66.31 C25.74,66.43 26.72,66.69 27.21,66.82 C28.33,67.85 29.65,68.54 31.19,68.67 L30.81,69.67 C31.89,69.98 32.98,70.29 34.07,70.59 L34.09,71.75 C34.6,71.6 35.61,71.3 36.11,71.15 L36.45,73.25 C38.15,70.56 34.23,70.28 32.55,69.15 C31.46,68.18 30.3,67.23 28.71,67.43 L29.18,66.75 C28.7,66.6 27.75,66.3 27.27,66.16 C27.48,62.19 26.69,58.34 23.75,55.47 L24.11,55 C23.28,53.77 22.43,52.53 21.59,51.31 C21.02,55.01 20.78,58.8 21.3,62.53 M29.61,63.47 C29.21,64.87 29.7,65.4 31.09,65.05 C31.48,63.65 30.99,63.12 29.61,63.47 M98.5,64.02 C94.46,68.2 91.51,73.28 88.46,78.2 C89.56,79.55 91.51,80.84 91.14,82.84 C90.43,85.92 88.52,88.62 86.39,90.89 C83.96,93.4 80.28,93.66 77.06,94.3 C76.41,99.76 81.24,103.78 85.88,105.45 C89.12,106.51 91.61,103.77 93.25,101.39 C94.17,100.24 94.98,99 95.59,97.66 C100.91,91.98 104.62,85.03 109.72,79.19 C111.36,77.14 114.92,76.17 114.59,73.03 C114.58,69.02 111.04,66.4 108.01,64.42 C105.25,62.74 101.1,61.33 98.5,64.02 M109.18,82.49 C103.91,89.69 98.78,96.98 93.91,104.45 C92.72,106.01 92.47,108.23 93.59,109.9 C95.98,113.61 100.49,115.87 104.92,115.26 L104.36,114.94 C112.92,107.58 118.31,96.73 128.37,90.97 C128.26,88.8 127.93,86.65 127.56,84.51 L127.29,84.46 C125.37,80.34 121.07,77.46 116.5,77.47 C113.28,77.54 110.99,80.14 109.18,82.49 M124.47,95.83 C118.71,100.86 114.19,107.09 109.25,112.89 C107.77,114.83 105.53,117.16 106.71,119.79 C108.27,123.14 112.32,126.91 116.14,124.39 C122.6,120.04 128.1,114.41 133.47,108.79 C133.8,109.22 134.47,110.07 134.8,110.5 C136.57,110.9 138.33,111.29 140.1,111.68 C140.39,108.57 140.92,105.13 139.06,102.37 C137,99.24 135.2,95.58 131.85,93.64 C129.2,92.28 126.47,94.19 124.47,95.83 M132.5,112.1 L131.88,113.25 C142.91,117.69 155.07,118.84 166.88,119.29 C166.77,123.11 169.22,125.91 172.62,127.27 C172.29,129.09 171.95,130.92 171.61,132.74 C172.26,132.78 173.54,132.85 174.19,132.89 C175.96,127.11 177.2,121.16 177.54,115.11 C165.88,116.26 154.04,116.07 142.49,113.98 C139.15,113.42 135.89,112.35 132.5,112.1 M128.45,116.13 C140.7,126.55 155.7,133.46 171.17,137.56 C171.1,139.13 170.88,140.72 171.16,142.29 C171.91,144.2 173.62,145.48 174.97,146.96 C172.56,151.5 169.66,155.78 166.2,159.59 C163.27,162.75 160.37,166.22 156.2,167.76 C155.27,166.56 153.67,166.75 152.36,166.43 C151.42,166.95 150.51,167.52 149.63,168.13 C148.52,168.46 147.41,168.8 146.31,169.16 C133.82,160.77 123.5,148.87 117.55,135.01 C116.09,132.17 116.11,128.33 113.25,126.41 C113.75,131.68 115.68,136.67 117.97,141.4 C125.21,155.89 137.43,167.52 151.33,175.6 C165.47,166.31 177.68,153.1 182.9,136.74 C164.16,133.47 145.78,126.54 130.69,114.77 C130.13,115.11 129.01,115.79 128.45,116.13 M137.21,117.26 C147.18,123.82 158.25,128.75 169.79,131.81 C170,130.7 170.22,129.58 170.43,128.47 C167.68,126.85 165.61,124.35 164.97,121.18 C155.6,120.83 146.33,119.38 137.21,117.26 M116.47,126.53 C121.13,143.06 132.39,157.23 146.3,167.05 C149.71,164.73 153.9,163.84 157.9,165.09 C163.85,160.19 168.82,154.17 172.66,147.51 C170.16,145.28 169.19,142.18 168.75,138.97 C153.92,134.33 139.39,127.84 127.44,117.7 C124.05,120.95 120.59,124.21 116.47,126.53 M120.25,149.57 C122.62,158.23 127.56,166 133.53,172.63 C135.84,171.9 138.15,171.15 140.45,170.39 C139.08,169.44 137.7,168.49 136.33,167.54 C136.22,168.27 136,169.72 135.88,170.45 C133.89,169.39 135.56,167.82 136.27,166.53 C134.61,165.71 132.83,166.08 131.12,166.45 C126.89,161.21 124.45,154.82 120.25,149.57 M130.73,162.3 C130.41,163.69 130.94,164.2 132.32,163.83 C132.64,162.43 132.11,161.92 130.73,162.3 z" fill="#010100"/>
    <path d="M37.76,29.32 C42.13,27.82 46.81,32.61 45.17,36.95 C43.98,41.44 37.28,42.56 34.71,38.7 C32.12,35.58 33.88,30.37 37.76,29.32 M34.87,34.97 C35.69,37.2 37.29,38.84 39.52,39.67 C40.91,38.65 43.33,38.07 43.38,35.98 C44.02,33.56 42.09,30.8 39.48,31.08 C37,30.72 35.97,33.29 34.87,34.97 z" fill="#010100"/>
    <path d="M49.95,44.56 C52.71,43.94 56.02,44.28 57.98,46.54 C60.17,49.04 59.53,52.81 57.91,55.44 C54.92,60.43 48.76,63.98 42.89,62.56 C39.63,61.73 37.85,58 38.77,54.86 C40.08,49.65 44.84,45.76 49.95,44.56 M49.9,46.48 C46.17,47.54 42.81,50.16 41.1,53.68 C40.11,56.05 40.17,59.67 43.07,60.62 C49.53,62.3 57.5,56.87 57.39,50.02 C57.34,46.37 52.71,45.56 49.9,46.48 z" fill="#010100"/>
    <path d="M47.98,53.16 C48.11,51.5 48.69,49.48 50.54,49.06 C51.92,49.22 53.24,49.69 54.57,50.07 C54.34,51.76 54.09,53.46 53.78,55.14 C53.22,54.36 52.1,52.8 51.54,52.02 C50.52,54.26 50.89,58.31 47.52,58.31 C46.83,58.06 45.46,57.55 44.77,57.29 C44.44,57.38 43.8,57.57 43.47,57.66 C43.86,55.62 44.26,53.59 44.76,51.59 C45.61,52.14 46.08,52.9 46.17,53.85 L45.83,54.53 C46.34,55.37 46.87,56.2 47.4,57.03 C47.75,56.67 48.44,55.95 48.79,55.6 C48.04,55.16 47.75,54.56 47.9,53.78 L47.98,53.16 M51.06,51.43 C51.23,51.59 51.23,51.59 51.06,51.43 z" fill="#010100"/>
    <path d="M24.42,63.08 C23.03,62.34 23.24,59.37 24.71,58.74 C26.45,59.33 25.83,62.41 24.42,63.08 z" fill="#010100"/>
    <path d="M134.87,127.49 C138.54,126.52 142.76,129.1 142.95,133.03 C143.37,140.11 136.11,147.28 128.95,145.54 C124.61,144.22 123.81,138.7 125.7,135.1 C127.38,131.35 130.8,128.31 134.87,127.49 M133.97,129.67 C128.94,131.34 123.97,138.61 128.36,143.17 C134.73,146.21 142.45,138.52 140.84,132.03 C139.93,129.18 136.41,128.69 133.97,129.67 z" fill="#010100"/>
    <path d="M133.27,132.87 C134.38,130.96 136.86,132.03 138.59,131.95 C138.68,133.6 138.76,135.26 138.81,136.91 C137.83,136.57 136.57,134.11 135.75,135.8 C135.54,137.55 136.3,139.97 134.3,140.94 C132.62,141.34 130.86,141.07 129.16,141.12 C129.27,139.11 129.36,137.1 129.62,135.11 C130.1,136 131.08,137.79 131.56,138.68 C132.68,136.91 132.69,134.81 133.27,132.87 M134.62,134.72 C135.98,135.04 136.48,134.51 136.11,133.11 C134.74,132.79 134.25,133.33 134.62,134.72 M132.8,137.78 C131.44,138.16 131.67,140.65 133.28,139.85 C134.7,139.54 134.37,136.91 132.8,137.78 z" fill="#010100"/>
    <path d="M146.63,143.29 C150.38,141.34 155.24,144.8 154.8,148.94 C154.67,153.15 149.41,155.9 145.92,153.47 C142.07,151.31 142.51,144.89 146.63,143.29 M146.88,145.31 C144.51,146.69 144.51,150.32 146.8,151.77 C149.05,153.64 152.75,151.74 152.94,148.94 C153.37,145.89 149.38,143.3 146.88,145.31 z" fill="#010100"/>
    <path d="M149.33,171.24 C150.78,169.84 153.97,166.1 154.89,170.11 C154.36,170.16 153.31,170.27 152.79,170.32 C152.79,170.76 152.8,171.63 152.8,172.06 C151.93,171.86 150.2,171.44 149.33,171.24 z" fill="#010100"/>
  </g>
  <g id="#49662dff">
    <path d="M16.15,30.9 C25.23,18.31 37.87,7.38 53.35,3.94 C55.65,23.16 61.24,42.7 73.41,58.1 C74.12,59.27 74.55,60.55 74.7,61.94 C73.19,60.75 71.7,59.52 70.49,58.03 C60.7,46.04 54.64,31.34 51.7,16.23 C47.82,16.71 44.72,14.63 42.74,11.46 C35.87,15.34 29.64,20.28 24.34,26.11 C24.27,27.85 24.17,29.59 23.79,31.29 L23.43,30.8 C23.13,29.11 22.87,27.43 22.59,25.74 C21.09,27.42 19.49,29.12 18.84,31.35 C18.84,31.9 18.84,33.01 18.84,33.57 C18.84,34.17 18.85,34.76 18.86,35.36 C19.18,35.47 19.84,35.67 20.17,35.78 C21.89,38.78 22.73,42.18 24.25,45.29 C28.55,54.4 34.35,62.88 41.77,69.74 C40.74,70.2 39.55,71.33 38.66,69.99 C27.53,59.61 19.2,45.9 16.15,30.9 M44.33,9.26 C45.18,10.65 45.74,12.31 47.05,13.36 C48.54,14.11 50.29,14.02 51.9,14.34 C51.79,11.77 51.56,9.21 51.31,6.65 C48.95,7.42 46.62,8.31 44.33,9.26 z" fill="#49662D"/>
  </g>
  <g id="#829a39ff">
    <path d="M44.33,9.26 C46.62,8.31 48.95,7.42 51.31,6.65 C51.56,9.21 51.79,11.77 51.9,14.34 C50.29,14.02 48.54,14.11 47.05,13.36 C45.74,12.31 45.18,10.65 44.33,9.26 M46.51,10.2 C46.49,10.75 46.46,11.84 46.44,12.39 C48.4,11.8 50.75,11.18 51.14,8.78 C49.59,9.23 48.05,9.71 46.51,10.2 z" fill="#829A39"/>
  </g>
  <g id="#2c3112ff">
    <path d="M46.51,10.2 C48.05,9.71 49.59,9.23 51.14,8.78 C50.75,11.18 48.4,11.8 46.44,12.39 C46.46,11.84 46.49,10.75 46.51,10.2 z" fill="#2C3112"/>
  </g>
  <g id="#aebd58ff">
    <path d="M26.01,27.09 C30.54,21.82 36.13,17.56 42.01,13.93 C44.15,16.38 46.98,18.04 50.28,18.19 C53.83,35.31 61.52,51.8 73.73,64.46 C70.73,62.7 68.09,59.98 64.45,59.68 C60.74,58.85 57.44,61.09 54.6,63.15 C51.21,65.62 47.35,67.29 43.56,69.03 C34.07,60.26 27.08,49.01 22.73,36.89 C23.49,35.81 24.26,34.73 25.02,33.65 C24.54,36.02 24.47,38.54 25.58,40.75 C28.28,46.59 31.35,52.33 35.41,57.36 C34.42,53.72 33.18,50.16 31.89,46.62 C29.7,40.71 28.9,34.38 26.44,28.56 C26.33,28.19 26.12,27.46 26.01,27.09 M42.15,17.01 C45.16,25.38 49.35,33.55 55.47,40.07 C53.12,33.43 50.48,26.84 49.51,19.81 C47.07,18.84 44.62,17.9 42.15,17.01 M37.76,29.32 C33.88,30.37 32.12,35.58 34.71,38.7 C37.28,42.56 43.98,41.44 45.17,36.95 C46.81,32.61 42.13,27.82 37.76,29.32 M49.95,44.56 C44.84,45.76 40.08,49.65 38.77,54.86 C37.85,58 39.63,61.73 42.89,62.56 C48.76,63.98 54.92,60.43 57.91,55.44 C59.53,52.81 60.17,49.04 57.98,46.54 C56.02,44.28 52.71,43.94 49.95,44.56 z" fill="#AEBD58"/>
    <path d="M18.84,31.35 C19.49,29.12 21.09,27.42 22.59,25.74 C22.87,27.43 23.13,29.11 23.43,30.8 L23.55,31.6 C22.43,32.95 21.92,35.11 20.17,35.78 C19.84,35.67 19.18,35.47 18.86,35.36 C18.85,34.76 18.84,34.17 18.84,33.57 C19.87,32.49 22.25,32.12 22.28,30.32 C22,29.92 21.42,29.14 21.13,28.74 C20.37,29.62 19.61,30.49 18.84,31.35 z" fill="#AEBD58"/>
    <path d="M22.81,56.75 C23.05,56.43 23.52,55.79 23.75,55.47 C26.69,58.34 27.48,62.19 27.27,66.16 C27.75,66.3 28.7,66.6 29.18,66.75 L28.71,67.43 C30.3,67.23 31.46,68.18 32.55,69.15 C34.23,70.28 38.15,70.56 36.45,73.25 L36.11,71.15 C35.61,71.3 34.6,71.6 34.09,71.75 L34.07,70.59 C32.98,70.29 31.89,69.98 30.81,69.67 L31.19,68.67 C29.65,68.54 28.33,67.85 27.21,66.82 C26.72,66.69 25.74,66.43 25.24,66.31 C25.1,66.04 24.8,65.51 24.65,65.24 C23,62.72 22.53,59.71 22.81,56.75 M24.42,63.08 C25.83,62.41 26.45,59.33 24.71,58.74 C23.24,59.37 23.03,62.34 24.42,63.08 z" fill="#AEBD58"/>
    <path d="M116.47,126.53 C120.59,124.21 124.05,120.95 127.44,117.7 C139.39,127.84 153.92,134.33 168.75,138.97 C169.19,142.18 170.16,145.28 172.66,147.51 C168.82,154.17 163.85,160.19 157.9,165.09 C153.9,163.84 149.71,164.73 146.3,167.05 C132.39,157.23 121.13,143.06 116.47,126.53 M134.87,127.49 C130.8,128.31 127.38,131.35 125.7,135.1 C123.81,138.7 124.61,144.22 128.95,145.54 C136.11,147.28 143.37,140.11 142.95,133.03 C142.76,129.1 138.54,126.52 134.87,127.49 M145.41,131.86 C151.27,139.63 160.12,144.93 169.54,147.16 C168.71,144.85 167.97,142.5 166.82,140.34 C165.36,139.3 163.49,139.08 161.83,138.51 C156.08,137.03 150.96,133.9 145.41,131.86 M146.63,143.29 C142.51,144.89 142.07,151.31 145.92,153.47 C149.41,155.9 154.67,153.15 154.8,148.94 C155.24,144.8 150.38,141.34 146.63,143.29 M129.6,147.92 C134.33,154.45 140.03,160.23 146.41,165.15 C149.36,163.97 152.44,163.11 155.58,162.56 C146.37,158.67 138.19,152.93 129.6,147.92 z" fill="#AEBD58"/>
    <path d="M152.36,166.43 C153.67,166.75 155.27,166.56 156.2,167.76 C156.52,168.03 157.16,168.58 157.49,168.85 C155.58,170.21 153.8,171.92 151.51,172.61 C149.89,172.68 148.65,171.3 147.27,170.63 C148.04,169.78 148.83,168.95 149.63,168.13 C150.51,167.52 151.42,166.95 152.36,166.43 M149.33,171.24 C150.2,171.44 151.93,171.86 152.8,172.06 C152.8,171.63 152.79,170.76 152.79,170.32 C153.31,170.27 154.36,170.16 154.89,170.11 C153.97,166.1 150.78,169.84 149.33,171.24 z" fill="#AEBD58"/>
  </g>
  <g id="#49662eff">
    <path d="M57.52,17.19 C63.16,15.77 68.95,15.03 74.77,14.99 C72.52,28.71 72.56,42.71 74.49,56.46 C72.97,54.52 71.13,52.58 70.81,50.01 C69.52,42.24 69.37,34.33 69.65,26.47 C65.94,25.73 63.57,22.79 62.94,19.15 C61.19,19.42 59.44,19.68 57.69,19.95 C57.65,19.26 57.56,17.88 57.52,17.19 M64.39,20.19 L66.45,19.72 C66.47,20.41 66.53,21.8 66.56,22.49 L65.53,22.89 C67.32,23.64 69.23,24.01 71.16,24.15 C71.34,21.9 71.49,19.64 71.6,17.38 C69.06,17.91 65.22,16.9 64.39,20.19 z" fill="#49662E"/>
  </g>
  <g id="#c6d472ff">
    <path d="M42.15,17.01 C44.62,17.9 47.07,18.84 49.51,19.81 C50.48,26.84 53.12,33.43 55.47,40.07 C49.35,33.55 45.16,25.38 42.15,17.01 z" fill="#C6D472"/>
    <path d="M146.88,145.31 C149.38,143.3 153.37,145.89 152.94,148.94 C152.75,151.74 149.05,153.64 146.8,151.77 C144.51,150.32 144.51,146.69 146.88,145.31 z" fill="#C6D472"/>
  </g>
  <g id="#8ca23aff">
    <path d="M64.39,20.19 C65.22,16.9 69.06,17.91 71.6,17.38 C71.49,19.64 71.34,21.9 71.16,24.15 C69.23,24.01 67.32,23.64 65.53,22.89 L66.56,22.49 C67.95,21.97 69.33,21.39 70.6,20.61 C70.33,18.47 67.85,19.52 66.45,19.72 L64.39,20.19 z" fill="#8CA23A"/>
  </g>
  <g id="#2d3214ff">
    <path d="M66.45,19.72 C67.85,19.52 70.33,18.47 70.6,20.61 C69.33,21.39 67.95,21.97 66.56,22.49 C66.53,21.8 66.47,20.41 66.45,19.72 z" fill="#2D3214"/>
  </g>
  <g id="#c3d26fff">
    <path d="M58.39,21.78 C59.44,21.65 60.5,21.51 61.55,21.38 C62.48,24.49 64.75,26.82 67.78,27.96 C67.53,34.52 67.87,41.07 68.46,47.61 C63.95,39.5 60.71,30.75 58.39,21.78 z" fill="#C3D26F"/>
    <path d="M134.62,134.72 C134.25,133.33 134.74,132.79 136.11,133.11 C136.48,134.51 135.98,135.04 134.62,134.72 z" fill="#C3D26F"/>
  </g>
  <g id="#4a652eff">
    <path d="M75.21,27.27 C91.13,25.37 107.64,28.05 121.87,35.54 C139.28,44.49 153.2,60.03 160.08,78.37 C164.5,89.66 165.93,101.96 165.01,114.01 C164.31,114.01 162.91,114.01 162.2,114.01 C163.89,94.64 158.25,74.68 146.17,59.38 C129.82,37.95 101.71,26.31 75,30.2 C75.05,29.47 75.16,28 75.21,27.27 z" fill="#4A652E"/>
  </g>
  <g id="#1b3208ff">
    <path d="M21.13,28.74 C21.42,29.14 22,29.92 22.28,30.32 C22.25,32.12 19.87,32.49 18.84,33.57 C18.84,33.01 18.84,31.9 18.84,31.35 C19.61,30.49 20.37,29.62 21.13,28.74 z" fill="#1B3208"/>
    <path d="M79.59,32.07 C105.01,29.86 130.98,41.95 145.8,62.69 C156.57,77.31 161.48,95.91 159.84,113.96 C156.27,113.82 152.7,113.54 149.15,113.14 C150.79,95.58 145.09,77.42 133.28,64.27 C119.11,47.9 96.35,39.89 75.02,43.34 C74.84,40.06 74.6,36.74 75.09,33.48 C76.35,32.48 78.06,32.39 79.59,32.07 z" fill="#1B3208"/>
    <path d="M10.52,110.03 C9.82,94.73 14.02,79.3 22.23,66.39 C25.03,68.62 28.04,70.57 31.2,72.27 C18.01,92.84 17.89,120.87 31.29,141.36 C31.89,142.29 32.51,143.22 33.14,144.13 C35.73,147.82 38.85,151.08 42.03,154.25 C44.16,151.82 46.32,149.39 48.85,147.36 C47.38,150.29 45.61,153.04 43.9,155.83 C44.51,156.31 45.74,157.29 46.35,157.78 C47.94,155.98 49.54,154.18 51.28,152.53 C50.19,154.72 49,156.85 47.79,158.98 C57.87,165.94 69.79,170.43 82.09,170.89 C83.4,170.93 84.72,170.97 86.04,170.96 C98.82,170.93 111.43,166.73 121.94,159.52 C123.58,162.72 125.47,165.81 127.61,168.71 C110.83,180.19 89.33,184.48 69.46,180.06 C51.6,176.3 35.37,165.6 24.73,150.79 C16.1,139.01 11.14,124.61 10.52,110.03 z" fill="#1B3208"/>
  </g>
  <g id="#c5d373ff">
    <path d="M26.44,28.56 C28.9,34.38 29.7,40.71 31.89,46.62 C33.18,50.16 34.42,53.72 35.41,57.36 C31.35,52.33 28.28,46.59 25.58,40.75 C24.47,38.54 24.54,36.02 25.02,33.65 C25.44,31.94 25.98,30.25 26.44,28.56 z" fill="#C5D373"/>
    <path d="M132.8,137.78 C134.37,136.91 134.7,139.54 133.28,139.85 C131.67,140.65 131.44,138.16 132.8,137.78 z" fill="#C5D373"/>
  </g>
  <g id="#fefffdff">
    <path d="M75,30.2 C101.71,26.31 129.82,37.95 146.17,59.38 C158.25,74.68 163.89,94.64 162.2,114.01 C161.61,114 160.43,113.97 159.84,113.96 C161.48,95.91 156.57,77.31 145.8,62.69 C130.98,41.95 105.01,29.86 79.59,32.07 C77.98,32.22 76.38,32.38 74.78,32.55 C74.83,31.96 74.94,30.79 75,30.2 z" fill="#FEFFFD"/>
  </g>
  <g id="#c6d375ff">
    <path d="M34.87,34.97 C35.97,33.29 37,30.72 39.48,31.08 C42.09,30.8 44.02,33.56 43.38,35.98 C43.33,38.07 40.91,38.65 39.52,39.67 C37.29,38.84 35.69,37.2 34.87,34.97 z" fill="#C6D375"/>
  </g>
  <g id="#c5d370ff">
    <path d="M49.9,46.48 C52.71,45.56 57.34,46.37 57.39,50.02 C57.5,56.87 49.53,62.3 43.07,60.62 C40.17,59.67 40.11,56.05 41.1,53.68 C42.81,50.16 46.17,47.54 49.9,46.48 M47.98,53.16 L47.9,53.78 C47.75,54.56 48.04,55.16 48.79,55.6 C48.44,55.95 47.75,56.67 47.4,57.03 C46.87,56.2 46.34,55.37 45.83,54.53 L46.17,53.85 C46.08,52.9 45.61,52.14 44.76,51.59 C44.26,53.59 43.86,55.62 43.47,57.66 C43.8,57.57 44.44,57.38 44.77,57.29 C45.46,57.55 46.83,58.06 47.52,58.31 C50.89,58.31 50.52,54.26 51.54,52.02 C52.1,52.8 53.22,54.36 53.78,55.14 C54.09,53.46 54.34,51.76 54.57,50.07 C53.24,49.69 51.92,49.22 50.54,49.06 C48.69,49.48 48.11,51.5 47.98,53.16 z" fill="#C5D370"/>
  </g>
  <g id="#a1ad61ff">
    <path d="M51.06,51.43 C51.23,51.59 51.23,51.59 51.06,51.43 z" fill="#A1AD61"/>
  </g>
  <g id="#edb989ff">
    <path d="M75.94,52.92 C79.19,50.22 83.81,50.16 87.58,51.72 C90.88,53.1 94.94,54.48 96.25,58.17 C97.81,61.45 94.98,64.42 93.4,67.05 C91.03,70.14 89.66,74.13 86.39,76.42 C81.74,74.57 78.16,70.38 74.88,66.66 C74.24,62.94 76.12,59.29 77.79,56.05 C76.65,55.31 76.03,54.26 75.94,52.92 M89.84,57.35 C86.56,59.47 84.84,63.17 83.15,66.55 C82.65,67.97 81.41,69.59 82.37,71.09 C83.16,73.11 85.65,73.33 87.5,73 C90.03,69.78 92.21,66.27 94.22,62.71 C95.88,59.93 93.18,55.28 89.84,57.35 z" fill="#EDB989"/>
    <path d="M49.6,68.16 C54.3,66.06 58.14,61.74 63.53,61.46 C68.42,61.43 71.38,65.84 74.48,68.96 C78.99,74.01 84.65,77.79 89.99,81.88 C88.32,84.9 86.84,88.27 83.96,90.36 C79.39,93.22 73.5,92.8 68.65,90.9 C65.08,89.49 61.33,87.65 59.27,84.25 C57.49,81.5 57.85,78.07 57.48,74.96 C54.97,77.51 54.97,80.95 56.24,84.09 C52.2,82.53 47.89,81.86 43.58,81.62 C47.31,83.74 51.58,84.53 55.53,86.11 C51.61,87.94 47.61,89.95 44.91,93.48 C49.35,92.02 53.27,88.6 58.02,88.38 C61.26,91.34 62.65,95.74 65.85,98.74 C70.4,103.48 77.42,105.99 80.07,112.4 C82.81,119.26 79.99,126.56 79.64,133.58 C83.38,128.61 83.96,122.2 85.4,116.35 C88.86,118.98 89.38,123.49 91.38,127.08 C91.35,124.1 91.13,121.13 91.13,118.15 C97.53,121.07 99.29,128.3 103.13,133.52 C102.87,128.86 100.58,124.74 98.49,120.68 C103.02,122.47 107.19,124.97 111.3,127.56 C112.54,133.6 115.25,139.19 116.89,145.11 C110.6,151.08 103.27,155.75 96.03,160.44 C93.29,162.24 89.69,163.51 86.54,161.98 C82.87,160.18 80.8,156.42 77.63,153.97 C72.1,149.78 66.05,145.4 58.82,145.2 C61.74,148.56 66.72,148.56 70.09,151.35 C76.78,155 79.92,162.88 87.12,165.74 C85.42,167.43 83.74,169.14 82.09,170.89 C69.79,170.43 57.87,165.94 47.79,158.98 C49,156.85 50.19,154.72 51.28,152.53 C49.54,154.18 47.94,155.98 46.35,157.78 C45.74,157.29 44.51,156.31 43.9,155.83 C45.61,153.04 47.38,150.29 48.85,147.36 C46.32,149.39 44.16,151.82 42.03,154.25 C38.85,151.08 35.73,147.82 33.14,144.13 C35.84,140.29 38.54,136.46 41.17,132.57 C44.47,135.21 47.77,138.08 51.87,139.39 C57.22,140.97 63.1,143.51 68.48,140.64 C63.1,139.69 57.43,139.6 52.44,137.13 C47.7,135.03 44.26,130.69 42.65,125.84 C39.64,116.5 38.44,106.72 36.71,97.1 C35.56,91.07 31.68,84.89 34.38,78.72 C36.97,72.48 44.21,71.04 49.6,68.16 M61.42,64.99 C61.18,70.81 64.75,75.84 68.7,79.76 C73.33,83.84 79.2,86.85 85.45,87.11 C85.81,85.19 86.87,83.22 86.39,81.25 C84.4,79.47 81.97,78.3 79.88,76.65 C75.21,72.96 71.94,67.54 66.49,64.88 C64.89,63.98 63.08,64.76 61.42,64.99 M41.65,74.03 C41.69,74.69 41.75,76.03 41.79,76.69 C44.8,77.26 47.82,77.78 50.85,78.23 C50.97,76.66 51.46,74.68 49.81,73.69 C47.28,72.11 44.28,73.42 41.65,74.03 M56.37,97.16 C57.36,99.68 58.28,102.33 60.21,104.3 C63.68,108.14 69.1,110.26 71.18,115.26 C73.49,120.23 70.32,127.18 75.66,130.63 C78.89,126.84 78.42,121.6 78.32,116.96 C78.24,112.41 75.85,107.92 71.79,105.73 C67.12,103.11 63.24,99.41 59.47,95.66 C58.44,96.16 57.4,96.66 56.37,97.16 M41.75,138.33 C39.59,139.91 37.8,142.28 37.4,144.99 C39.28,149.14 43.79,144.97 44.74,142.24 C46.27,140.27 44.23,136.42 41.75,138.33 M95.52,150.93 C90.37,153.78 84.62,150.98 79.19,150.96 C81.35,155.27 85.06,159.13 89.76,160.5 C93.13,160.24 96.01,158.09 98.61,156.1 C101.94,153.3 105.45,150.58 107.81,146.85 C103.15,144.88 99.48,149.24 95.52,150.93 z" fill="#EDB989"/>
    <path d="M98.5,64.02 C101.1,61.33 105.25,62.74 108.01,64.42 C111.04,66.4 114.58,69.02 114.59,73.03 C114.92,76.17 111.36,77.14 109.72,79.19 C104.62,85.03 100.91,91.98 95.59,97.66 C98.38,88.3 106.59,82.03 110.89,73.5 C111.56,71.77 112.03,68.34 109.51,68.04 C106.17,67.36 104.01,70.47 102.34,72.81 C98.24,79.05 94.52,85.56 90.03,91.54 C88.15,94.28 85.75,96.88 84.99,100.2 C84.58,101.85 86.34,103.16 87.76,103.5 C89.72,103.24 91.49,102.24 93.25,101.39 C91.61,103.77 89.12,106.51 85.88,105.45 C81.24,103.78 76.41,99.76 77.06,94.3 C80.28,93.66 83.96,93.4 86.39,90.89 C88.52,88.62 90.43,85.92 91.14,82.84 C91.51,80.84 89.56,79.55 88.46,78.2 C91.51,73.28 94.46,68.2 98.5,64.02 z" fill="#EDB989"/>
    <path d="M109.18,82.49 C110.99,80.14 113.28,77.54 116.5,77.47 C121.07,77.46 125.37,80.34 127.29,84.46 C124.63,83.93 121.6,83 119.15,84.71 C114.95,87.5 112.75,92.27 109.62,96.08 C106.34,100.76 101.86,104.85 100.03,110.4 C99.47,112.98 102.8,113.72 104.36,114.94 L104.92,115.26 C100.49,115.87 95.98,113.61 93.59,109.9 C92.47,108.23 92.72,106.01 93.91,104.45 C98.78,96.98 103.91,89.69 109.18,82.49 z" fill="#EDB989"/>
    <path d="M124.47,95.83 C126.47,94.19 129.2,92.28 131.85,93.64 C135.2,95.58 137,99.24 139.06,102.37 C140.92,105.13 140.39,108.57 140.1,111.68 C138.33,111.29 136.57,110.9 134.8,110.5 C134.47,110.07 133.8,109.22 133.47,108.79 C128.1,114.41 122.6,120.04 116.14,124.39 C112.32,126.91 108.27,123.14 106.71,119.79 C105.53,117.16 107.77,114.83 109.25,112.89 C114.19,107.09 118.71,100.86 124.47,95.83 M130.86,98.47 C125.96,100.97 122.9,105.76 119.2,109.65 C116.57,112.68 113.29,115.19 111.19,118.64 C110.22,120.07 110.5,122.65 112.51,122.94 C114.54,123.86 116.1,122.06 117.55,120.94 C122.14,116.9 126.44,112.56 130.65,108.13 C132.42,106.2 134.65,104.59 135.94,102.26 C136.82,99.42 133.4,96.84 130.86,98.47 z" fill="#EDB989"/>
  </g>
  <g id="#4b652fff">
    <path d="M21.3,62.53 C20.78,58.8 21.02,55.01 21.59,51.31 C22.43,52.53 23.28,53.77 24.11,55 L23.75,55.47 C23.52,55.79 23.05,56.43 22.81,56.75 C22.53,59.71 23,62.72 24.65,65.24 C23.51,64.44 21.48,64.2 21.3,62.53 z" fill="#4B652F"/>
    <path d="M6.78,122.14 C2.69,101.43 7.1,79 19.32,61.71 C19.59,62.49 20.15,64.05 20.43,64.83 C11.43,79.08 6.94,96.17 8.43,113.01 C9.88,133.32 19.99,152.75 35.56,165.82 C49.07,177.36 66.69,183.97 84.46,184.06 C100.25,184.32 116.02,179.44 129,170.48 C129.63,171.23 130.28,171.95 130.95,172.67 C117.92,181.6 102.31,186.79 86.48,186.94 C68.27,187.28 50.03,181.07 35.79,169.71 C20.9,157.96 10.3,140.82 6.78,122.14 z" fill="#4B652F"/>
    <path d="M132.5,112.1 C135.89,112.35 139.15,113.42 142.49,113.98 C154.04,116.07 165.88,116.26 177.54,115.11 C177.2,121.16 175.96,127.11 174.19,132.89 C173.54,132.85 172.26,132.78 171.61,132.74 C171.95,130.92 172.29,129.09 172.62,127.27 C169.22,125.91 166.77,123.11 166.88,119.29 C155.07,118.84 142.91,117.69 131.88,113.25 L132.5,112.1 M168.45,117.9 C167.23,121.99 169.95,125.75 174.08,126.24 C174.39,123.32 175.87,120.11 174.14,117.36 C173.65,117.67 172.66,118.3 172.17,118.61 L171.68,118.78 C171.8,118.47 172.06,117.84 172.19,117.52 C171.25,117.62 169.39,117.8 168.45,117.9 z" fill="#4B652F"/>
  </g>
  <g id="#fdce9aff">
    <path d="M89.84,57.35 C93.18,55.28 95.88,59.93 94.22,62.71 C92.21,66.27 90.03,69.78 87.5,73 C85.65,73.33 83.16,73.11 82.37,71.09 C81.41,69.59 82.65,67.97 83.15,66.55 C84.84,63.17 86.56,59.47 89.84,57.35 z" fill="#FDCE9A"/>
    <path d="M61.42,64.99 C63.08,64.76 64.89,63.98 66.49,64.88 C71.94,67.54 75.21,72.96 79.88,76.65 C81.97,78.3 84.4,79.47 86.39,81.25 C86.87,83.22 85.81,85.19 85.45,87.11 C79.2,86.85 73.33,83.84 68.7,79.76 C64.75,75.84 61.18,70.81 61.42,64.99 z" fill="#FDCE9A"/>
    <path d="M102.34,72.81 C104.01,70.47 106.17,67.36 109.51,68.04 C112.03,68.34 111.56,71.77 110.89,73.5 C106.59,82.03 98.38,88.3 95.59,97.66 C94.98,99 94.17,100.24 93.25,101.39 C91.49,102.24 89.72,103.24 87.76,103.5 C86.34,103.16 84.58,101.85 84.99,100.2 C85.75,96.88 88.15,94.28 90.03,91.54 C94.52,85.56 98.24,79.05 102.34,72.81 z" fill="#FDCE9A"/>
    <path d="M41.65,74.03 C44.28,73.42 47.28,72.11 49.81,73.69 C51.46,74.68 50.97,76.66 50.85,78.23 C47.82,77.78 44.8,77.26 41.79,76.69 C41.75,76.03 41.69,74.69 41.65,74.03 z" fill="#FDCE9A"/>
    <path d="M119.15,84.71 C121.6,83 124.63,83.93 127.29,84.46 L127.56,84.51 C127.93,86.65 128.26,88.8 128.37,90.97 C118.31,96.73 112.92,107.58 104.36,114.94 C102.8,113.72 99.47,112.98 100.03,110.4 C101.86,104.85 106.34,100.76 109.62,96.08 C112.75,92.27 114.95,87.5 119.15,84.71 z" fill="#FDCE9A"/>
    <path d="M56.37,97.16 C57.4,96.66 58.44,96.16 59.47,95.66 C63.24,99.41 67.12,103.11 71.79,105.73 C75.85,107.92 78.24,112.41 78.32,116.96 C78.42,121.6 78.89,126.84 75.66,130.63 C70.32,127.18 73.49,120.23 71.18,115.26 C69.1,110.26 63.68,108.14 60.21,104.3 C58.28,102.33 57.36,99.68 56.37,97.16 z" fill="#FDCE9A"/>
    <path d="M130.86,98.47 C133.4,96.84 136.82,99.42 135.94,102.26 C134.65,104.59 132.42,106.2 130.65,108.13 C126.44,112.56 122.14,116.9 117.55,120.94 C116.1,122.06 114.54,123.86 112.51,122.94 C110.5,122.65 110.22,120.07 111.19,118.64 C113.29,115.19 116.57,112.68 119.2,109.65 C122.9,105.76 125.96,100.97 130.86,98.47 z" fill="#FDCE9A"/>
    <path d="M95.52,150.93 C99.48,149.24 103.15,144.88 107.81,146.85 C105.45,150.58 101.94,153.3 98.61,156.1 C96.01,158.09 93.13,160.24 89.76,160.5 C85.06,159.13 81.35,155.27 79.19,150.96 C84.62,150.98 90.37,153.78 95.52,150.93 z" fill="#FDCE9A"/>
  </g>
  <g id="#55572aff">
    <path d="M29.61,63.47 C30.99,63.12 31.48,63.65 31.09,65.05 C29.7,65.4 29.21,64.87 29.61,63.47 z" fill="#55572A"/>
  </g>
  <g id="#fffefeff">
    <path d="M20.43,64.83 C21.01,65.37 21.61,65.89 22.23,66.39 C14.02,79.3 9.82,94.73 10.52,110.03 C11.14,124.61 16.1,139.01 24.73,150.79 C35.37,165.6 51.6,176.3 69.46,180.06 C89.33,184.48 110.83,180.19 127.61,168.71 C127.96,169.15 128.65,170.04 129,170.48 C116.02,179.44 100.25,184.32 84.46,184.06 C66.69,183.97 49.07,177.36 35.56,165.82 C19.99,152.75 9.88,133.32 8.43,113.01 C6.94,96.17 11.43,79.08 20.43,64.83 z" fill="#FFFEFE"/>
    <path d="M97.32,162.74 C104.37,158.23 111.24,153.38 117.35,147.63 C118.61,151.69 120.06,155.7 121.94,159.52 C111.43,166.73 98.82,170.93 86.04,170.96 C87.31,169.21 88.6,167.46 89.89,165.72 C92.47,165.02 95.07,164.23 97.32,162.74 z" fill="#FFFEFE"/>
  </g>
  <g id="#49662cff">
    <path d="M128.45,116.13 C129.01,115.79 130.13,115.11 130.69,114.77 C145.78,126.54 164.16,133.47 182.9,136.74 C177.68,153.1 165.47,166.31 151.33,175.6 C137.43,167.52 125.21,155.89 117.97,141.4 C115.68,136.67 113.75,131.68 113.25,126.41 C116.11,128.33 116.09,132.17 117.55,135.01 C123.5,148.87 133.82,160.77 146.31,169.16 C147.41,168.8 148.52,168.46 149.63,168.13 C148.83,168.95 148.04,169.78 147.27,170.63 C148.65,171.3 149.89,172.68 151.51,172.61 C153.8,171.92 155.58,170.21 157.49,168.85 C157.16,168.58 156.52,168.03 156.2,167.76 C160.37,166.22 163.27,162.75 166.2,159.59 C169.66,155.78 172.56,151.5 174.97,146.96 C173.62,145.48 171.91,144.2 171.16,142.29 C170.88,140.72 171.1,139.13 171.17,137.56 C155.7,133.46 140.7,126.55 128.45,116.13 M173.32,136.52 C173.03,138.57 171.9,140.77 172.87,142.8 C173.6,144.66 175.58,145.42 177.17,146.4 C178.3,143.6 179.36,140.77 180.37,137.93 C178.03,137.4 175.68,136.94 173.32,136.52 z" fill="#49662C"/>
  </g>
  <g id="#c4d26fff">
    <path d="M137.21,117.26 C146.33,119.38 155.6,120.83 164.97,121.18 C165.61,124.35 167.68,126.85 170.43,128.47 C170.22,129.58 170,130.7 169.79,131.81 C158.25,128.75 147.18,123.82 137.21,117.26 z" fill="#C4D26F"/>
  </g>
  <g id="#8ca33bff">
    <path d="M168.45,117.9 C169.39,117.8 171.25,117.62 172.19,117.52 C172.06,117.84 171.8,118.47 171.68,118.78 C171.46,119.02 171.02,119.48 170.8,119.71 C170.75,121.01 170.69,122.3 170.63,123.6 C171.75,123.48 172.87,123.36 174,123.25 C173.43,121.68 172.87,120.12 172.17,118.61 C172.66,118.3 173.65,117.67 174.14,117.36 C175.87,120.11 174.39,123.32 174.08,126.24 C169.95,125.75 167.23,121.99 168.45,117.9 z" fill="#8CA33B"/>
  </g>
  <g id="#262c10ff">
    <path d="M170.8,119.71 C171.02,119.48 171.46,119.02 171.68,118.78 L172.17,118.61 C172.87,120.12 173.43,121.68 174,123.25 C172.87,123.36 171.75,123.48 170.63,123.6 C170.69,122.3 170.75,121.01 170.8,119.71 z" fill="#262C10"/>
  </g>
  <g id="#c7d476ff">
    <path d="M133.97,129.67 C136.41,128.69 139.93,129.18 140.84,132.03 C142.45,138.52 134.73,146.21 128.36,143.17 C123.97,138.61 128.94,131.34 133.97,129.67 M133.27,132.87 C132.69,134.81 132.68,136.91 131.56,138.68 C131.08,137.79 130.1,136 129.62,135.11 C129.36,137.1 129.27,139.11 129.16,141.12 C130.86,141.07 132.62,141.34 134.3,140.94 C136.3,139.97 135.54,137.55 135.75,135.8 C136.57,134.11 137.83,136.57 138.81,136.91 C138.76,135.26 138.68,133.6 138.59,131.95 C136.86,132.03 134.38,130.96 133.27,132.87 z" fill="#C7D476"/>
  </g>
  <g id="#c7d474ff">
    <path d="M145.41,131.86 C150.96,133.9 156.08,137.03 161.83,138.51 C163.49,139.08 165.36,139.3 166.82,140.34 C167.97,142.5 168.71,144.85 169.54,147.16 C160.12,144.93 151.27,139.63 145.41,131.86 z" fill="#C7D474"/>
  </g>
  <g id="#859a39ff">
    <path d="M173.32,136.52 C175.68,136.94 178.03,137.4 180.37,137.93 C179.36,140.77 178.3,143.6 177.17,146.4 C175.58,145.42 173.6,144.66 172.87,142.8 C171.9,140.77 173.03,138.57 173.32,136.52 M175.86,138.13 C175.36,139.89 174.85,141.65 174.35,143.41 C175.16,143.27 176.77,142.99 177.58,142.84 C177.42,142.25 177.12,141.06 176.97,140.46 C177.28,140.11 177.9,139.41 178.22,139.07 C177.63,138.83 176.45,138.37 175.86,138.13 z" fill="#859A39"/>
  </g>
  <g id="#fdce9bff">
    <path d="M41.75,138.33 C44.23,136.42 46.27,140.27 44.74,142.24 C43.79,144.97 39.28,149.14 37.4,144.99 C37.8,142.28 39.59,139.91 41.75,138.33 z" fill="#FDCE9B"/>
  </g>
  <g id="#2b3213ff">
    <path d="M175.86,138.13 C176.45,138.37 177.63,138.83 178.22,139.07 C177.9,139.41 177.28,140.11 176.97,140.46 C177.12,141.06 177.42,142.25 177.58,142.84 C176.77,142.99 175.16,143.27 174.35,143.41 C174.85,141.65 175.36,139.89 175.86,138.13 z" fill="#2B3213"/>
  </g>
  <g id="#c6d474ff">
    <path d="M129.6,147.92 C138.19,152.93 146.37,158.67 155.58,162.56 C152.44,163.11 149.36,163.97 146.41,165.15 C140.03,160.23 134.33,154.45 129.6,147.92 z" fill="#C6D474"/>
  </g>
  <g id="#6f8638ff">
    <path d="M120.25,149.57 C124.45,154.82 126.89,161.21 131.12,166.45 C132.83,166.08 134.61,165.71 136.27,166.53 C135.56,167.82 133.89,169.39 135.88,170.45 C136,169.72 136.22,168.27 136.33,167.54 C137.7,168.49 139.08,169.44 140.45,170.39 C138.15,171.15 135.84,171.9 133.53,172.63 C127.56,166 122.62,158.23 120.25,149.57 z" fill="#6F8638"/>
  </g>
  <g id="#434b25ff">
    <path d="M130.73,162.3 C132.11,161.92 132.64,162.43 132.32,163.83 C130.94,164.2 130.41,163.69 130.73,162.3 z" fill="#434B25"/>
  </g>
</svg>
